<?xml version="1.0" ?><svg id="Icons" style="enable-background:new 0 0 32 32;" version="1.1" viewBox="0 0 32 32" xml:space="preserve" xmlns="http://www.w3.org/2000/svg" xmlns:xlink="http://www.w3.org/1999/xlink"><g><path d="M22,29v-9H10v9c0,0.6-0.4,1-1,1h14C22.4,30,22,29.6,22,29z"/><path d="M27,13.1V7.8C27,5.2,24.8,3,22.2,3H9.8C7.2,3,5,5.2,5,7.8v5.3c-1.7,0.4-3,2-3,3.9v10c0,1.7,1.3,3,3,3h4c-0.6,0-1-0.4-1-1   V17c0-1.1-0.9-2-2-2c-0.6,0-1-0.4-1-1s0.4-1,1-1c2.2,0,4,1.8,4,4v1h12v-1c0-2.2,1.8-4,4-4c0.6,0,1,0.4,1,1s-0.4,1-1,1   c-1.1,0-2,0.9-2,2v12c0,0.6-0.4,1-1,1h4c1.7,0,3-1.3,3-3V17C30,15.1,28.7,13.6,27,13.1z"/></g></svg>